<svg width="40" height="50" viewBox="0 0 40 50" fill="none" xmlns="http://www.w3.org/2000/svg">
<path fill-rule="evenodd" clip-rule="evenodd" d="M33.3588 17.8892C33.4453 17.3769 33.5318 16.836 33.676 16.3237C33.9643 15.1852 34.3103 14.4451 34.7717 13.762L30.5042 9.46396C26.8998 11.3426 24.0164 10.8018 20.2102 9.00854C16.4041 10.8018 13.5207 11.3426 9.91633 9.46396L5.64883 13.762C6.11018 14.4451 6.42736 15.1852 6.74454 16.3237C6.88871 16.8645 7.00408 17.3769 7.06172 17.8892H33.3588Z" fill="#E1251B"/>
<path d="M36.2419 30.3562C36.9916 35.1381 33.445 38.2406 29.0622 39.0376C27.7934 39.2653 26.3229 39.2937 25.0254 39.4076C23.4683 39.55 21.6806 39.8061 20.21 40.5462C18.7394 39.8061 16.9517 39.5784 15.3946 39.4076C14.0971 39.2937 12.6265 39.2653 11.3578 39.0376C6.97496 38.2406 3.45715 35.1381 4.17803 30.3562C4.52405 28.0791 5.93694 25.6881 6.60014 23.4395C7.06149 21.931 7.2345 20.4508 7.14797 18.9707H33.2432C33.1566 20.4508 33.3585 21.931 33.791 23.4395C34.483 25.6881 35.8959 28.0791 36.2419 30.3562Z" fill="#001B71"/>
<path d="M20.2103 42.0833L20.0661 41.9979C18.4514 41.0017 16.0293 40.8309 13.8955 40.6602C12.8863 40.5747 11.9348 40.5178 11.1275 40.3755C8.53234 39.8916 6.28325 38.6962 4.78384 37.0168C3.1403 35.1382 2.4771 32.7757 2.88077 30.1571C3.11146 28.677 3.71698 27.2253 4.29369 25.8306C4.66851 24.9198 5.07222 23.9805 5.33171 23.0696C5.96607 20.9064 6.02376 18.8001 5.44704 16.6653C5.07222 15.299 4.66851 14.6444 4.03416 13.8474L3.86115 13.6482L9.68573 7.75617L9.88754 7.87004C13.5207 10.0333 16.1735 9.464 20.095 7.55692L20.2103 7.5L20.3256 7.55692C25.3428 9.97633 27.7073 9.57783 30.533 7.87004L30.7349 7.75617L36.5594 13.6482L36.3864 13.8474C35.7521 14.6444 35.3484 15.299 34.9735 16.6937C34.3969 18.8285 34.4545 20.9348 35.0889 23.0981C35.3772 24.0089 35.7521 24.9482 36.1269 25.859C36.7036 27.2538 37.3091 28.7054 37.5398 30.1855C37.9436 32.8042 37.2804 35.1667 35.6079 37.0453C34.1085 38.7531 31.8594 39.9485 29.2643 40.404C28.4569 40.5463 27.5054 40.6317 26.4962 40.6886C24.3624 40.8309 21.9403 41.0302 20.3256 42.0263L20.2103 42.0833ZM4.63967 13.6766C5.24523 14.4451 5.64889 15.1852 5.99491 16.523C6.60043 18.7716 6.54275 20.9633 5.87959 23.2119C5.59121 24.1513 5.18755 25.119 4.81268 26.0298C4.23601 27.3961 3.65933 28.8193 3.42864 30.214C2.82312 34.1705 4.98569 38.6677 11.2428 39.8063C12.0213 39.9485 12.9729 40.0055 13.9532 40.0909C16.087 40.2332 18.5091 40.4325 20.2391 41.4002C21.9692 40.404 24.3913 40.2332 26.5251 40.0909C27.5054 40.0055 28.4569 39.9485 29.2355 39.8063C35.4637 38.6677 37.6552 34.1705 37.0497 30.214C36.819 28.8193 36.2422 27.3961 35.6656 26.0298C35.2907 25.119 34.887 24.1513 34.5987 23.2119C33.9355 20.9348 33.8778 18.7431 34.4833 16.523C34.8294 15.1852 35.2619 14.4451 35.8386 13.6766L30.6484 8.49621C26.9287 10.631 24.1894 10.0617 20.2103 8.15467C16.2311 10.0617 13.4919 10.631 9.77222 8.49621L4.63967 13.6766Z" fill="#001B71"/>
<path d="M30.7639 32.6903H30.9081C31.0523 32.6903 31.1676 32.6619 31.2541 32.6049C31.3118 32.548 31.3695 32.4626 31.3695 32.3488C31.3695 32.2064 31.3406 32.1211 31.283 32.0641C31.2253 32.0072 31.11 31.9787 30.937 31.9787H30.7928V32.6903H30.7639ZM30.1007 34.1135V31.4664H30.8504C31.1388 31.4664 31.3406 31.4664 31.456 31.4949C31.5713 31.5233 31.6578 31.5802 31.7443 31.6372C31.8308 31.7226 31.9173 31.8079 31.975 31.9218C32.0327 32.0356 32.0615 32.1495 32.0615 32.2918C32.0615 32.4911 32.0038 32.6619 31.9173 32.8042C31.802 32.9465 31.6578 33.0319 31.4848 33.0604L32.2057 34.142H31.3983L30.7928 33.0888V34.142H30.1007V34.1135ZM25.4872 34.1135V31.4664H27.102V32.0356H26.1793V32.4911H27.0443V33.0604H26.1793V33.5158H27.102V34.1135H25.4872ZM21.3063 34.1135V32.0926H20.7295V31.4664H22.6326V32.0926H22.0559V34.1135H21.3063ZM16.6062 34.1135V31.4664H17.3271V33.5158H18.2209V34.142H16.6062V34.1135ZM12.7712 34.1135V31.4664H13.4921V34.1135H12.7712ZM8.24423 34.1135V31.4664H9.85897V32.0356H8.93623V32.4911H9.80128V33.0604H8.93623V34.1135H8.24423ZM28.1112 29.4739V22.6996H32.2345V24.1797H29.8989V25.3467H32.0903V26.7984H29.8989V27.9369H32.2345V29.4455H28.1112V29.4739ZM23.613 25.916H23.959C24.3627 25.916 24.651 25.8591 24.824 25.7167C24.997 25.5744 25.0836 25.3752 25.0836 25.0905C25.0836 24.749 24.997 24.5213 24.824 24.3789C24.651 24.2366 24.3627 24.1512 23.959 24.1512H23.5841V25.916H23.613ZM21.9118 29.4739V22.6996H23.8148C24.5645 22.6996 25.0836 22.7281 25.3719 22.8134C25.6602 22.8704 25.9197 23.0127 26.1504 23.155C26.3811 23.3543 26.5829 23.582 26.6983 23.8666C26.8136 24.1512 26.9001 24.4644 26.9001 24.8059C26.9001 25.3182 26.7848 25.7452 26.5253 26.0868C26.2657 26.4283 25.8909 26.6276 25.4007 26.7414L27.2461 29.4739H25.17L23.6418 26.8268V29.4739H21.9118ZM14.3283 22.6996H16.1449V26.0013C16.1449 26.4853 16.1449 26.8268 16.1737 27.0545C16.2025 27.2538 16.2313 27.453 16.289 27.5953C16.3467 27.7661 16.4909 27.9084 16.6639 27.9938C16.8369 28.0792 17.0387 28.1361 17.2983 28.1361C17.5577 28.1361 17.7596 28.0792 17.9326 27.9938C18.1056 27.9084 18.2209 27.7661 18.3074 27.5953C18.3651 27.453 18.394 27.2822 18.4228 27.0545C18.4516 26.8553 18.4516 26.4853 18.4516 26.0013V22.7281H20.2682V26.286C20.2682 27.0261 20.2105 27.5669 20.124 27.9369C20.0375 28.2785 19.8933 28.5916 19.6627 28.8477C19.432 29.1323 19.1148 29.3316 18.7111 29.4739C18.3074 29.6163 17.8172 29.6732 17.2406 29.6732C16.6639 29.6732 16.1737 29.6163 15.77 29.4739C15.3663 29.3316 15.0492 29.1323 14.8185 28.8477C14.6167 28.5916 14.4725 28.3069 14.3571 27.9369C14.2706 27.5954 14.2129 27.0261 14.2129 26.286V22.6996H14.3283ZM9.02276 27.2822C9.28225 27.5954 9.57059 27.8231 9.83013 27.9653C10.0896 28.1077 10.3492 28.1931 10.6087 28.1931C10.8393 28.1931 11.0412 28.1361 11.2142 27.9938C11.3872 27.8515 11.4449 27.6807 11.4449 27.4815C11.4449 27.2538 11.3872 27.083 11.243 26.9691C11.0988 26.8553 10.8105 26.713 10.3203 26.5991C9.65712 26.4283 9.19577 26.1721 8.93623 25.916C8.67674 25.6314 8.53257 25.2329 8.53257 24.749C8.53257 24.0943 8.73442 23.582 9.16693 23.155C9.59943 22.7565 10.1473 22.5288 10.8393 22.5288C11.2142 22.5288 11.5602 22.5857 11.9062 22.6711C12.2522 22.785 12.5406 22.9273 12.8577 23.1266L12.281 24.4644C12.0792 24.2936 11.8485 24.1512 11.6467 24.0659C11.416 23.9804 11.2142 23.9235 11.0123 23.9235C10.7817 23.9235 10.6087 23.9804 10.4645 24.0943C10.3203 24.2081 10.2626 24.3505 10.2626 24.4928C10.2626 24.6636 10.3203 24.8059 10.4356 24.8913C10.551 25.0051 10.7817 25.0905 11.1277 25.1759L11.2142 25.2044C11.9639 25.4036 12.454 25.6314 12.6847 25.8875C12.8289 26.0583 12.9731 26.2576 13.0596 26.4853C13.1461 26.713 13.1749 26.9691 13.1749 27.2538C13.1749 27.9653 12.9442 28.5631 12.4829 28.9901C12.0215 29.417 11.3872 29.6447 10.6087 29.6447C10.1473 29.6447 9.7148 29.5593 9.33994 29.417C8.96507 29.2462 8.59025 29.0185 8.24423 28.6485L9.02276 27.2822Z" fill="white"/>
<path fill-rule="evenodd" clip-rule="evenodd" d="M20.1816 10.8586L20.816 12.8511L22.9209 12.8226L21.2197 14.075L21.8829 16.0675L20.1816 14.8151L18.5093 16.0675L19.1436 14.075L17.4712 12.8226L19.5473 12.8511L20.1816 10.8586Z" fill="white"/>
</svg>
