<svg width="25" height="23" viewBox="0 0 25 23" fill="none" xmlns="http://www.w3.org/2000/svg">
<g clip-path="url(#clip0_90_774)">
<path d="M20.8247 0H14.281C13.2697 0 12.441 0.815858 12.441 1.81168C12.441 2.80751 13.2697 3.62337 14.281 3.62337H18.9847V8.25456C18.9847 9.25034 19.8133 10.0662 20.8247 10.0662C21.836 10.0662 22.6647 9.25034 22.6647 8.25456V1.81168C22.6647 0.815858 21.836 0 20.8247 0Z" fill="#CA003D"/>
<path d="M8.38359 0.0595703H1.84C0.82861 0.0595703 0 0.863434 0 1.87125C0 2.86708 0.82861 3.68294 1.84 3.68294H6.54359V8.31413C6.54359 9.30998 7.3722 10.1258 8.38359 10.1258C9.395 10.1258 10.2236 9.30998 10.2236 8.31413V1.87125C10.2236 0.863434 9.395 0.0595703 8.38359 0.0595703Z" fill="#CA003D"/>
<path d="M20.8499 12.5378H14.3063C13.2949 12.5378 12.4663 13.3537 12.4663 14.3495C12.4663 15.3453 13.2949 16.1612 14.3063 16.1612H19.0099V20.7924C19.0099 21.7882 19.8386 22.6041 20.8499 22.6041C21.8613 22.6041 22.6899 21.7882 22.6899 20.7924V14.3495C22.6899 13.3537 21.8613 12.5378 20.8499 12.5378Z" fill="#CA003D"/>
</g>
<defs>
<clipPath id="clip0_90_774">
<rect width="25" height="23" fill="white"/>
</clipPath>
</defs>
</svg>
