<svg width="47" height="47" viewBox="0 0 47 47" fill="none" xmlns="http://www.w3.org/2000/svg">
<path d="M17.5758 20.9769C17.3524 20.2027 17.102 19.6265 16.8875 19.4554C16.7533 19.3474 16.655 19.3834 16.655 19.3834C16.503 19.3924 16.3868 19.8066 16.2795 20.2207C16.1901 20.5538 16.0918 20.8689 16.0829 20.9859H17.5758V20.9769ZM30.5135 18.2401C30.1469 18.1321 29.7624 18.15 29.7624 18.15L29.8339 19.8606C29.8339 19.8606 30.129 19.8336 30.4687 19.6896C30.8442 19.5275 31.1124 19.2124 31.1035 18.8433C31.0945 18.6362 30.8532 18.3481 30.5135 18.2401ZM23.7104 25.5323C19.6782 25.5323 16.2004 27.3238 16.2004 29.2684C16.2004 31.204 19.5441 32.9956 23.5852 32.9956C27.6263 32.9956 31.2293 31.204 31.2293 29.2684C31.2293 27.3148 27.7514 25.5323 23.7104 25.5323ZM21.9937 31.303C21.6183 31.6721 21.1623 31.7711 20.6527 31.7711C20.1789 31.7711 19.714 31.5821 19.4457 31.2851C19.1507 30.961 19.0703 30.4657 19.0613 30.0696H19.6066C19.6155 30.3308 19.7318 31.204 20.6795 31.204C21.0193 31.204 21.7971 31.0239 21.7971 30.3937C21.7971 30.0517 21.5914 29.7455 20.7778 29.5475C20.7153 29.5295 19.8034 29.2774 19.5083 29.0073C19.1686 28.7013 19.1686 28.2511 19.1686 27.981C19.1686 27.1438 20.1252 26.7117 20.7868 26.7477C21.2696 26.7747 22.2352 26.9817 22.2352 28.2781H21.6898C21.663 28.044 21.5646 27.2878 20.7153 27.2878C19.8034 27.2878 19.696 27.828 19.7229 28.0711C19.7407 28.2421 19.8391 28.6742 20.7778 28.8723C20.9835 28.9173 21.7613 29.0703 22.0564 29.4304C22.2262 29.6015 22.3425 29.8446 22.3514 30.1146C22.3871 30.5468 22.2799 31.0239 21.9937 31.303ZM22.9951 32.2573H22.5928L24.0948 26.7567H24.4792L22.9951 32.2573ZM27.7693 27.4589H25.4717V28.9083H27.4833V29.4845H25.4717V31.6271H24.8995V26.8826H27.7693V27.4589Z" fill="#ED1C24"/>
<path d="M43.0841 20.0587C39.6065 21.4992 36.7185 17.0699 40.5986 14.7652C38.6586 13.0367 34.9304 11.3532 30.8 14.4501C31.6761 9.46258 29.3784 7.20289 26.6337 5.50138C26.2314 6.8518 25.7217 7.72506 24.0945 8.00413C22.1991 8.40026 20.6792 6.47369 20.7955 5.4834C16.1732 7.43699 15.5385 12.1184 16.4773 14.5672C16.2448 14.0989 11.6225 10.777 6.77676 14.9183C10.7105 16.9978 7.40261 21.5442 4.31812 20.1308C4.59526 25.8745 8.9314 27.513 11.7476 27.8281C7.03605 32.4015 9.21751 37.0739 11.2202 38.9734C13.3391 36.0926 17.0673 37.1728 16.7633 41.1251C20.3127 40.9089 22.217 38.7213 23.7012 36.1196C25.6949 39.3696 28.0552 41.089 30.7463 40.9629C30.6837 40.171 30.8625 39.1624 31.5241 38.4602C32.5523 37.362 34.2778 36.9838 36.1374 38.9284C39.2845 35.3093 39.1057 30.988 35.6725 27.7561C41.8504 26.2886 42.9678 23.0927 43.0841 20.0587ZM24.1929 17.3309C24.1929 17.3309 24.327 16.8178 25.078 16.7818C25.7843 16.7458 25.82 17.2589 25.7664 17.448C25.686 17.7361 25.4714 17.8891 25.4624 18.0331C25.4267 18.5103 25.4446 21.3552 25.4446 21.3552C25.4446 21.3552 25.4624 21.8953 26.0794 21.8774C26.6694 21.8593 26.6605 21.2111 26.6605 21.1481C26.6605 21.085 26.6783 17.8261 26.6783 17.7451C26.6783 17.718 26.5263 17.61 26.5353 17.421C26.5443 17.2139 27.0449 16.7818 27.0449 16.7818C27.0449 16.7818 27.5903 16.7638 27.6886 16.8808C27.8942 17.1148 27.9031 18.2402 27.8942 19.4376C27.8853 20.833 27.8496 22.3455 27.8496 22.8586C27.8496 23.1647 27.6797 23.2817 27.3846 23.2997C27.1522 23.3177 27.0449 23.2277 26.8303 23.0297C26.7231 22.9216 26.276 23.0567 26.0168 23.2097C25.8648 23.2997 25.3372 23.4618 24.765 23.2277C24.1571 22.9756 24.175 22.2374 24.1571 21.7153C24.1571 20.6799 24.0856 17.637 24.1929 17.3309ZM19.7673 16.7997C20.4289 16.4036 20.9474 17.8981 20.7955 19.2395C20.7418 19.7346 21.2783 19.0234 21.7879 18.1231C22.1008 17.601 22.36 16.9168 22.5657 16.8088C22.7802 16.7008 22.968 16.8088 23.2184 17.0879C23.4239 17.3129 23.4419 17.8621 23.1825 18.2492C22.6819 18.9785 21.5197 19.5096 21.3855 19.6626C21.2783 19.7977 22.2707 21.013 22.4674 21.2832C22.6283 21.5082 22.9412 21.7153 23.2005 21.9403C23.4687 22.1744 23.6833 22.4265 23.7101 22.5975C23.7459 22.8946 23.4687 23.2187 23.2095 23.2637C22.9233 23.3177 22.208 23.4078 21.8057 22.7776C21.4034 22.1384 20.7776 19.0955 20.6882 20.4909C20.5809 21.9763 20.1339 23.0117 20.0892 23.1556C20.0445 23.2817 19.9372 23.2998 19.83 23.2817C19.669 23.2817 19.7226 23.0927 19.7763 22.9936C19.83 22.8045 19.6869 19.5276 19.0878 17.718C19.0789 17.7451 19.0342 17.2409 19.7673 16.7997ZM14.0543 22.1474C13.9203 22.3994 13.6074 22.7506 13.2497 22.9936C12.9725 23.1737 12.6775 23.2637 12.4183 23.2727C11.7924 23.2727 9.73604 22.4085 9.95063 21.013C9.96849 20.8869 10.0848 20.6529 10.3351 20.5449C10.5675 20.4459 10.8805 20.4819 10.9967 20.608C11.1219 20.7429 11.2739 21.058 11.3364 21.1931C11.5331 21.5712 11.8639 22.0393 12.2304 22.1203C12.3109 22.1384 12.5255 22.1564 12.6596 22.0483C12.7312 21.9853 12.7669 21.9313 12.7579 21.7693C12.7043 20.941 11.5688 19.7977 11.1219 19.1765C10.6927 18.5463 10.8447 17.9161 10.943 17.682C11.0682 17.385 11.6493 16.7638 12.6328 16.7908C13.1156 16.8088 13.8487 17.52 14.0454 17.9161C14.1169 18.1052 14.0812 18.3482 14.0007 18.4652C13.8398 18.7173 13.2855 18.7533 13.1692 18.5283C13.0352 18.2852 12.8563 17.8981 12.597 17.799C12.5166 17.7721 12.3646 17.7721 12.2484 17.8981C12.141 18.0152 12.1053 18.4292 12.5255 18.9064C12.9457 19.3746 13.7593 20.1218 14.0007 20.6259C14.2241 21.0401 14.2868 21.6972 14.0543 22.1474ZM14.6712 21.9853V21.7873C14.6802 21.4902 14.7874 20.788 15.0914 20.2479C15.7441 19.0594 16.3788 18.0422 16.4325 17.7361C16.4325 17.7361 16.1554 17.6641 16.1374 17.3579C16.1285 17.2319 16.2627 16.7458 17.112 16.7458C17.1745 16.7458 17.407 16.8357 17.6484 17.0609C18.2027 17.565 18.9716 18.7624 18.9716 20.2028C18.9716 20.2028 18.9895 23.2097 18.462 23.3808C18.3458 23.4168 18.2385 23.2097 18.1312 22.9306C17.9702 22.4625 17.8362 21.8593 17.8272 21.8323C17.8272 21.8233 17.3534 21.8323 16.9064 21.8323H16.0839C16.0749 21.8412 16.2359 22.5795 16.1285 22.9306C16.0034 23.4258 15.5295 23.2637 15.4491 23.2637C15.0646 23.1916 14.698 22.6966 14.6712 21.9853ZM23.6028 33.5088C19.1326 33.5088 15.6011 31.5462 15.6011 29.2415C15.6011 26.9458 19.222 25.0462 23.6833 25.0462C28.1535 25.0462 31.7923 26.9458 31.7923 29.2415C31.7923 31.5552 28.0642 33.5088 23.6028 33.5088ZM32.2572 23.2907H32.2304C32.0695 23.2907 31.6314 23.1377 31.3989 22.8856C31.2469 22.7416 31.0503 22.3994 30.9876 22.2464C30.8715 21.9673 30.7195 21.5983 30.487 21.2741C30.4334 21.211 30.2546 20.9591 30.2278 20.932C30.04 20.7429 29.8254 20.5269 29.8254 20.833C29.8522 21.6342 30.0042 21.7333 30.0936 22.1744C30.1919 22.6155 30.0847 23.2727 29.5841 23.2547C29.289 23.2187 29.0297 23.1556 28.8688 22.9216C28.7347 22.7235 28.6631 22.2014 28.6989 21.5622C28.7793 20.1758 28.7525 20.2568 28.833 18.3842C28.8241 17.9521 28.6989 17.6911 28.6989 17.6911C28.6005 17.592 28.4575 17.43 28.4665 17.2319C28.4754 17.0609 28.6989 16.9168 29.0118 16.8538C29.1191 16.8268 29.5393 16.7458 30.04 16.7548C30.2278 16.7548 30.773 16.7908 30.943 16.8088C31.6761 16.9258 32.5433 17.367 32.5165 18.3572C32.5343 19.4556 31.0771 20.1668 30.9072 20.3018C30.7284 20.4459 32.7668 21.5532 32.7668 22.6875C32.7848 23.2007 32.3914 23.2817 32.2572 23.2907ZM36.9421 23.3897C36.8258 23.4258 36.7185 23.2187 36.6112 22.9396C36.4503 22.4715 36.3162 21.8683 36.3073 21.8412C36.3073 21.8323 35.8335 21.8412 35.3864 21.8412H34.5639C34.5549 21.8503 34.7159 22.5885 34.6085 22.9396C34.4834 23.4347 34.0096 23.2727 33.9291 23.2727C33.5536 23.2097 33.178 22.7056 33.1512 21.9944V21.7963C33.1602 21.4992 33.2675 20.797 33.5714 20.2568C34.2242 19.0684 34.8589 18.0512 34.9125 17.7451C34.9125 17.7451 34.6354 17.673 34.6175 17.367C34.6085 17.2409 34.7427 16.7548 35.5831 16.7548C35.6457 16.7548 35.8781 16.8448 36.1195 17.0699C36.6738 17.574 37.4427 18.7714 37.4427 20.2118C37.4517 20.2118 37.4785 23.2097 36.9421 23.3897Z" fill="#ED1C24"/>
<path d="M35.3772 19.4554C35.243 19.3475 35.1447 19.3834 35.1447 19.3834C34.9927 19.3925 34.8766 19.8066 34.7692 20.2207C34.6798 20.5538 34.5815 20.8689 34.5725 20.9859H36.0656C35.8421 20.2027 35.5918 19.6265 35.3772 19.4554Z" fill="#ED1C24"/>
</svg>
