<svg width="48" height="26" viewBox="0 0 48 26" fill="none" xmlns="http://www.w3.org/2000/svg">
<path fill-rule="evenodd" clip-rule="evenodd" d="M20.2422 6.49951C19.3398 6.55679 18.4375 6.65995 17.5351 6.84331V9.13547C18.5174 8.96355 19.4083 8.83747 20.2422 8.76871V6.49951ZM13.789 22.9571H6.90155V23.7708C6.90155 23.8969 6.99291 24 7.09571 24H14.2459C16.9871 22.8425 20.7335 21.9715 24.1601 21.9715C27.5982 21.9715 31.3789 22.8196 34.1658 24H41.2816C41.4072 24 41.4872 23.8969 41.4872 23.7708V22.9342H34.6113C31.8471 21.7537 27.9294 20.8713 24.1601 20.8942C20.4137 20.8942 16.496 21.7766 13.789 22.9571Z" fill="#6A3D92"/>
<path fill-rule="evenodd" clip-rule="evenodd" d="M4.59415 8.12674C4.52563 8.16114 4.39999 8.26426 4.39999 8.43618V9.71978C4.55991 9.63954 4.73123 9.55934 4.90255 9.4791C16.3931 3.6227 31.3102 3.53102 43.3488 9.41034C43.5544 9.5135 43.7716 9.61662 43.9884 9.71978V8.43618C43.9884 8.26426 43.8516 8.16114 43.7828 8.12674C31.8128 2.08698 16.6444 2.08698 4.59415 8.12674Z" fill="#6A3D92"/>
<path fill-rule="evenodd" clip-rule="evenodd" d="M41.7612 13.2613L42.458 13.8458L43.6344 13.8917C43.806 13.8917 44 13.7656 44 13.5478V11.4047C44 11.2671 43.8972 11.1411 43.8288 11.0952C41.8984 9.98354 40.288 9.43342 38.1748 8.66558V10.8546C38.6431 10.9233 39.2713 11.3588 38.6774 11.7943L35.8447 13.7427V10.9921C35.8447 10.6941 35.8333 10.1899 36.5757 10.3617L37.2154 10.4993V8.35614C32.064 6.65994 27.0612 6.08694 21.0647 6.4193V8.64266C21.6244 8.55098 21.9898 8.90626 22.0013 9.52514L21.8985 16.5964C21.8985 17.1694 21.453 17.433 20.9847 17.582C20.7448 17.6164 20.4936 17.6393 20.2537 17.6737V9.53658C19.3514 9.60534 18.449 9.74286 17.5467 9.90334V17.582C17.5467 18.0633 17.4896 18.1321 17.0213 18.2467C16.5644 18.3499 16.256 18.4415 15.7877 18.5561V10.4534C15.7877 10.2815 15.742 9.60535 16.4159 9.3303C16.5187 9.2959 16.6215 9.26154 16.7243 9.23862V6.98086C14.9653 7.26738 13.2863 7.69142 11.7215 8.1613V10.2586L12.1555 10.2357C12.8865 10.2242 13.0693 10.6139 13.0921 11.1411V14.8658L9.48279 8.90626C7.71235 9.58242 6.21607 10.1555 4.57131 11.0723C4.45711 11.164 4.39999 11.2901 4.39999 11.4047V13.5593C4.39999 13.7656 4.55991 13.926 4.74263 13.9031L5.71351 13.8917C5.87343 13.8917 6.05619 14.0177 6.05619 14.2355V16.9402C6.05619 17.1809 5.82775 17.3069 5.71351 17.3069L4.74263 17.3184C4.47995 17.3184 4.39999 17.5132 4.39999 17.6851V19.7824C4.39999 19.9085 4.44567 20.0117 4.53707 20.0575L6.87855 21.8912L10.1452 21.8453V19.1406L9.11727 19.1521C8.91167 19.1521 8.75175 19.0146 8.75175 18.8083V14.0635L13.3548 21.662C20.1281 18.8656 28.2377 18.9687 34.9538 21.6276L37.2039 21.7193V19.0146L36.3244 18.9802C36.016 18.9573 35.8447 18.8083 35.8447 18.4415V17.0319L37.341 16.0119L38.8144 18.5447C38.9515 18.877 38.7116 19.0604 38.506 19.0489H38.1976V21.7537L41.5328 21.8797L43.8744 20.0575C43.9656 19.9887 44.0116 19.897 44.0116 19.7939V17.6966C44.0116 17.4903 43.84 17.3299 43.646 17.3299L41.5672 17.2381C41.3956 17.2381 41.3044 17.135 41.2588 17.0319L39.6825 14.373L41.3272 13.2499C41.4072 13.1811 41.6012 13.1238 41.7612 13.2613ZM25.3136 8.99794C25.3251 8.61974 25.6792 8.59682 26.4216 8.6541C27.164 8.69994 28.2377 8.9521 28.2262 10.2013C28.2034 11.4161 26.513 11.9892 25.3136 12.0694V8.99794ZM25.3136 17.4101V14.1781C25.3251 13.6051 26.3759 13.7427 26.6843 13.7656C27.3239 13.777 28.6946 14.1781 28.7174 15.5305C28.7402 17.3069 26.8328 17.4788 25.3136 17.4101ZM32.578 18.5676C31.9156 18.3957 31.6072 18.3269 31.6072 18.3269C31.6072 18.3269 32.0869 17.582 31.9841 16.3442C31.8813 15.1065 31.4472 14.1896 30.2251 13.1696C30.602 12.9404 31.2873 12.2299 31.4016 11.0838C31.5386 9.96062 31.1046 8.84894 31.1046 8.84894C31.1046 8.84894 31.413 8.89478 32.3039 9.07814C33.1834 9.25006 33.1263 10.3961 33.1263 10.3961V18.0404C33.1377 18.0519 33.2519 18.7395 32.578 18.5676Z" fill="#6A3D92"/>
</svg>
