<svg width="36" height="27" viewBox="0 0 36 27" fill="none" xmlns="http://www.w3.org/2000/svg">
<g clip-path="url(#clip0_90_762)">
<path d="M2.35271 4.97412H14.221V17.5449C14.221 19.5579 12.7637 21.0152 10.7507 21.0152H3.3278C1.31475 21.0152 -0.142578 19.5579 -0.142578 17.5449V16.3077H4.9738V16.3706C4.9738 17.2513 5.6133 17.9014 6.50451 17.9014H8.09809C8.9788 17.9014 9.62892 17.2618 9.62892 16.3706V8.0985H2.35271V4.97412ZM15.2266 16.3077V17.5449C15.2266 19.5579 16.6839 21.0152 18.6969 21.0152H31.8128C34.0775 21.0152 35.7129 19.3796 35.7129 17.115V15.3432C35.7129 13.0785 34.0775 11.443 31.8128 11.443H21.4753C20.5946 11.443 19.9445 10.8034 19.9445 9.91233V9.60821C19.9445 8.7275 20.5841 8.0775 21.4753 8.0775H28.4578C29.3385 8.0775 29.9886 8.717 29.9886 9.60821H35.1258V8.434C35.1258 6.421 33.6686 4.96362 31.6556 4.96362H19.1268C16.8621 4.96362 15.2266 6.59921 15.2266 8.86383V10.5937C15.2266 12.8584 16.8621 14.4939 19.1268 14.4939H29.4643C30.345 14.4939 30.9951 15.1335 30.9951 16.0246V16.3706C30.9951 17.2513 30.3555 17.9014 29.4643 17.9014H21.8946C21.0139 17.9014 20.3639 17.2618 20.3639 16.3706V16.3077H15.2266Z" fill="#EA0013"/>
</g>
<defs>
<clipPath id="clip0_90_762">
<rect width="36" height="27" fill="white"/>
</clipPath>
</defs>
</svg>
