<svg width="16" height="16" viewBox="0 0 16 16" fill="none" xmlns="http://www.w3.org/2000/svg">
<path d="M14.7502 13.0012C15.2421 13.4932 15.2421 14.2584 14.7502 14.7503C14.5042 14.9963 14.2036 15.1056 13.8756 15.1056C13.5477 15.1056 13.2471 14.9963 13.0011 14.7503L7.99987 9.74906L2.99863 14.7503C2.75267 14.9963 2.45204 15.1056 2.12409 15.1056C1.79614 15.1056 1.49552 14.9963 1.24956 14.7503C0.757634 14.2584 0.757634 13.4932 1.24956 13.0012L6.2508 7.99999L1.24956 2.99875C0.757634 2.50682 0.757634 1.74161 1.24956 1.24968C1.74148 0.757756 2.5067 0.757756 2.99863 1.24968L7.99987 6.25092L13.0011 1.24968C13.493 0.757756 14.2583 0.757756 14.7502 1.24968C15.2421 1.74161 15.2421 2.50682 14.7502 2.99875L9.74894 7.99999L14.7502 13.0012Z" fill="#E21A1A"/>
</svg>
