<svg width="15" height="15" viewBox="0 0 15 15" fill="none" xmlns="http://www.w3.org/2000/svg">
<path fill-rule="evenodd" clip-rule="evenodd" d="M8.25 0.75C8.25 0.551088 8.17097 0.360379 8.03032 0.219727C7.88967 0.0790743 7.69891 0 7.5 0C7.30109 0 7.11033 0.0790743 6.96968 0.219727C6.82903 0.360379 6.75 0.551088 6.75 0.75V14.25C6.75 14.4489 6.82903 14.6396 6.96968 14.7803C7.11033 14.9209 7.30109 15 7.5 15C7.69891 15 7.88967 14.9209 8.03032 14.7803C8.17097 14.6396 8.25 14.4489 8.25 14.25V0.75ZM14.5613 6.44019L11.9085 3.78735C11.767 3.65073 11.5776 3.57544 11.3809 3.57715C11.1843 3.57886 10.9962 3.65745 10.8571 3.79651C10.7181 3.93556 10.6392 4.12391 10.6375 4.32056C10.6358 4.5172 10.7114 4.70645 10.848 4.8479L12.1103 6.1095C12.1628 6.16194 12.1987 6.22893 12.2132 6.30176C12.2277 6.37459 12.2203 6.44995 12.1918 6.51855C12.1634 6.58716 12.1152 6.64582 12.0534 6.68701C11.9917 6.72821 11.919 6.75013 11.8447 6.75H10.242C10.0431 6.75 9.85231 6.82907 9.71166 6.96973C9.57101 7.11038 9.492 7.30109 9.492 7.5C9.492 7.69891 9.57101 7.88962 9.71166 8.03027C9.85231 8.17093 10.0431 8.25 10.242 8.25H11.8432C11.9175 8.24987 11.9901 8.27179 12.0519 8.31299C12.1137 8.35419 12.1619 8.41284 12.1903 8.48145C12.2188 8.55005 12.2262 8.62541 12.2117 8.69824C12.1971 8.77107 12.1613 8.83806 12.1087 8.8905L10.848 10.1514C10.7073 10.2919 10.6282 10.4824 10.628 10.6813C10.6279 10.8801 10.7068 11.0712 10.8473 11.2119L10.848 11.2126C10.9886 11.3532 11.1794 11.432 11.3782 11.432C11.5771 11.432 11.7678 11.3532 11.9085 11.2126L14.5597 8.56201L14.5762 8.5448C14.8505 8.26224 15.0026 7.8831 14.9998 7.48938C14.997 7.09566 14.8395 6.7188 14.5613 6.44019ZM4.75724 6.75H3.15525C3.08099 6.75013 3.00835 6.72821 2.94656 6.68701C2.88476 6.64582 2.83659 6.58716 2.80815 6.51855C2.77971 6.44995 2.77229 6.37459 2.78682 6.30176C2.80134 6.22893 2.83717 6.16194 2.88975 6.1095L4.15201 4.8479C4.29264 4.70727 4.37164 4.51651 4.37164 4.31763C4.37164 4.11874 4.29264 3.92798 4.15201 3.78735C4.08237 3.71772 3.99971 3.66281 3.90873 3.62512C3.81775 3.58744 3.72023 3.56799 3.62176 3.56799C3.42288 3.56799 3.23214 3.64672 3.09151 3.78735L0.438744 6.44019C0.157812 6.72132 0 7.10256 0 7.5C0 7.89744 0.157812 8.27868 0.438744 8.55981L3.09151 11.2126C3.16119 11.2823 3.2439 11.3372 3.33492 11.3749C3.42595 11.4125 3.5235 11.432 3.62201 11.432C3.72052 11.432 3.81807 11.4126 3.90907 11.3749C4.00007 11.3371 4.08274 11.282 4.15237 11.2123C4.22201 11.1426 4.27724 11.0598 4.3149 10.9688C4.35257 10.8777 4.37193 10.7802 4.37189 10.6816C4.37186 10.5831 4.35243 10.4855 4.3147 10.3945C4.27697 10.3035 4.22169 10.221 4.15201 10.1514L2.89126 8.8905C2.83868 8.83806 2.80286 8.77107 2.78833 8.69824C2.7738 8.62541 2.78122 8.55005 2.80966 8.48145C2.8381 8.41284 2.88627 8.35419 2.94807 8.31299C3.00986 8.27179 3.0825 8.24987 3.15676 8.25H4.75724C4.95615 8.25 5.14693 8.17093 5.28758 8.03027C5.42823 7.88962 5.50724 7.69891 5.50724 7.5C5.50724 7.30109 5.42823 7.11038 5.28758 6.96973C5.14693 6.82907 4.95615 6.75 4.75724 6.75Z" fill="white"/>
<mask id="mask0_87_652" style="mask-type:alpha" maskUnits="userSpaceOnUse" x="0" y="0" width="15" height="15">
<path fill-rule="evenodd" clip-rule="evenodd" d="M8.25 0.75C8.25 0.551088 8.17097 0.360379 8.03032 0.219727C7.88967 0.0790743 7.69891 0 7.5 0C7.30109 0 7.11033 0.0790743 6.96968 0.219727C6.82903 0.360379 6.75 0.551088 6.75 0.75V14.25C6.75 14.4489 6.82903 14.6396 6.96968 14.7803C7.11033 14.9209 7.30109 15 7.5 15C7.69891 15 7.88967 14.9209 8.03032 14.7803C8.17097 14.6396 8.25 14.4489 8.25 14.25V0.75ZM14.5613 6.44019L11.9085 3.78735C11.767 3.65073 11.5776 3.57544 11.3809 3.57715C11.1843 3.57886 10.9962 3.65745 10.8571 3.79651C10.7181 3.93556 10.6392 4.12391 10.6375 4.32056C10.6358 4.5172 10.7114 4.70645 10.848 4.8479L12.1103 6.1095C12.1628 6.16194 12.1987 6.22893 12.2132 6.30176C12.2277 6.37459 12.2203 6.44995 12.1918 6.51855C12.1634 6.58716 12.1152 6.64582 12.0534 6.68701C11.9917 6.72821 11.919 6.75013 11.8447 6.75H10.242C10.0431 6.75 9.85231 6.82907 9.71166 6.96973C9.57101 7.11038 9.492 7.30109 9.492 7.5C9.492 7.69891 9.57101 7.88962 9.71166 8.03027C9.85231 8.17093 10.0431 8.25 10.242 8.25H11.8432C11.9175 8.24987 11.9901 8.27179 12.0519 8.31299C12.1137 8.35419 12.1619 8.41284 12.1903 8.48145C12.2188 8.55005 12.2262 8.62541 12.2117 8.69824C12.1971 8.77107 12.1613 8.83806 12.1087 8.8905L10.848 10.1514C10.7073 10.2919 10.6282 10.4824 10.628 10.6813C10.6279 10.8801 10.7068 11.0712 10.8473 11.2119L10.848 11.2126C10.9886 11.3532 11.1794 11.432 11.3782 11.432C11.5771 11.432 11.7678 11.3532 11.9085 11.2126L14.5597 8.56201L14.5762 8.5448C14.8505 8.26224 15.0026 7.8831 14.9998 7.48938C14.997 7.09566 14.8395 6.7188 14.5613 6.44019ZM4.75724 6.75H3.15525C3.08099 6.75013 3.00835 6.72821 2.94656 6.68701C2.88476 6.64582 2.83659 6.58716 2.80815 6.51855C2.77971 6.44995 2.77229 6.37459 2.78682 6.30176C2.80134 6.22893 2.83717 6.16194 2.88975 6.1095L4.15201 4.8479C4.29264 4.70727 4.37164 4.51651 4.37164 4.31763C4.37164 4.11874 4.29264 3.92798 4.15201 3.78735C4.08237 3.71772 3.99971 3.66281 3.90873 3.62512C3.81775 3.58744 3.72023 3.56799 3.62176 3.56799C3.42288 3.56799 3.23214 3.64672 3.09151 3.78735L0.438744 6.44019C0.157812 6.72132 0 7.10256 0 7.5C0 7.89744 0.157812 8.27868 0.438744 8.55981L3.09151 11.2126C3.16119 11.2823 3.2439 11.3372 3.33492 11.3749C3.42595 11.4125 3.5235 11.432 3.62201 11.432C3.72052 11.432 3.81807 11.4126 3.90907 11.3749C4.00007 11.3371 4.08274 11.282 4.15237 11.2123C4.22201 11.1426 4.27724 11.0598 4.3149 10.9688C4.35257 10.8777 4.37193 10.7802 4.37189 10.6816C4.37186 10.5831 4.35243 10.4855 4.3147 10.3945C4.27697 10.3035 4.22169 10.221 4.15201 10.1514L2.89126 8.8905C2.83868 8.83806 2.80286 8.77107 2.78833 8.69824C2.7738 8.62541 2.78122 8.55005 2.80966 8.48145C2.8381 8.41284 2.88627 8.35419 2.94807 8.31299C3.00986 8.27179 3.0825 8.24987 3.15676 8.25H4.75724C4.95615 8.25 5.14693 8.17093 5.28758 8.03027C5.42823 7.88962 5.50724 7.69891 5.50724 7.5C5.50724 7.30109 5.42823 7.11038 5.28758 6.96973C5.14693 6.82907 4.95615 6.75 4.75724 6.75Z" fill="white"/>
</mask>
<g mask="url(#mask0_87_652)">
<rect x="6.17645" width="2.64706" height="15" fill="#BCBEFF"/>
</g>
</svg>
