<svg width="16" height="9" viewBox="0 0 16 9" fill="none" xmlns="http://www.w3.org/2000/svg">
<path fill-rule="evenodd" clip-rule="evenodd" d="M0.233915 0.29902C-0.078085 0.630384 -0.078085 1.1663 0.233915 1.49684L6.84524 8.50294C6.99097 8.65976 7.16608 8.78465 7.36048 8.86998C7.55487 8.95531 7.76456 8.99929 7.9761 8.99929C8.18765 8.99929 8.39694 8.95531 8.59134 8.86998C8.78573 8.78465 8.96084 8.65976 9.10657 8.50294L15.7667 1.44612C15.9156 1.28596 15.9992 1.07387 16.0007 0.852919C16.0022 0.631967 15.9212 0.418709 15.7745 0.256474C15.7021 0.176106 15.6144 0.111807 15.5167 0.0675467C15.419 0.0232866 15.3134 1.29729e-05 15.2066 -0.000830734C15.0997 -0.00167444 14.994 0.0199282 14.8956 0.0626403C14.7973 0.105352 14.7083 0.168257 14.6347 0.247473L8.54095 6.7062C8.46808 6.78468 8.38037 6.84716 8.28313 6.88987C8.1859 6.93257 8.08153 6.95461 7.97571 6.95461C7.86989 6.95461 7.76514 6.93257 7.6679 6.88987C7.57066 6.84716 7.48296 6.78468 7.41009 6.7062L1.36438 0.299021C1.29158 0.220565 1.20374 0.158094 1.10657 0.115399C1.0094 0.0727043 0.904907 0.0506795 0.79915 0.0506795C0.693393 0.0506795 0.588897 0.0727043 0.491728 0.115399C0.394559 0.158094 0.306716 0.220565 0.233915 0.29902Z" fill="#232445"/>
</svg>
