<svg width="31" height="32" viewBox="0 0 31 32" fill="none" xmlns="http://www.w3.org/2000/svg">
<g clip-path="url(#clip0_40_14)">
<path d="M28.788 0H19.7421C18.344 0 17.1985 1.1493 17.1985 2.55211C17.1985 3.95493 18.344 5.10422 19.7421 5.10422H26.2444V11.6282C26.2444 13.031 27.3899 14.1803 28.788 14.1803C30.1862 14.1803 31.3317 13.031 31.3317 11.6282V2.55211C31.3317 1.1493 30.1862 0 28.788 0Z" fill="#CA003D"/>
<path d="M11.5896 0.0837402H2.54364C1.14548 0.0837402 0 1.21613 0 2.63585C0 4.03867 1.14548 5.18796 2.54364 5.18796H9.04592V11.7119C9.04592 13.1147 10.1914 14.264 11.5896 14.264C12.9877 14.264 14.1332 13.1147 14.1332 11.7119V2.63585C14.1332 1.21613 12.9877 0.0837402 11.5896 0.0837402Z" fill="#CA003D"/>
<path d="M28.823 17.6621H19.777C18.3789 17.6621 17.2334 18.8114 17.2334 20.2142C17.2334 21.617 18.3789 22.7663 19.777 22.7663H26.2793V29.2903C26.2793 30.6931 27.4248 31.8424 28.823 31.8424C30.2211 31.8424 31.3666 30.6931 31.3666 29.2903V20.2142C31.3666 18.8114 30.2211 17.6621 28.823 17.6621Z" fill="#CA003D"/>
</g>
<defs>
<clipPath id="clip0_40_14">
<rect width="31" height="32" fill="white"/>
</clipPath>
</defs>
</svg>
