<svg width="16" height="19" viewBox="0 0 16 19" fill="none" xmlns="http://www.w3.org/2000/svg">
<path d="M6.46949 16.8942C6.46949 17.2699 6.6187 17.6301 6.8843 17.8957C7.1499 18.1613 7.51013 18.3105 7.88574 18.3105C8.26135 18.3105 8.62158 18.1613 8.88718 17.8957C9.15278 17.6301 9.30199 17.2699 9.30199 16.8942C9.30199 16.7083 9.26536 16.5241 9.19419 16.3523C9.12301 16.1804 9.01869 16.0243 8.88718 15.8928C8.75567 15.7613 8.59955 15.657 8.42772 15.5858C8.25589 15.5146 8.07173 15.478 7.88574 15.478C7.69976 15.478 7.51559 15.5146 7.34377 15.5858C7.17194 15.657 7.01581 15.7613 6.8843 15.8928C6.75279 16.0243 6.64847 16.1804 6.5773 16.3523C6.50612 16.5241 6.46949 16.7083 6.46949 16.8942ZM10.3814 11.5483C12.3737 10.451 13.3857 8.86013 13.3857 6.821C13.3857 3.31888 10.6234 1.75 7.88574 1.75C5.21962 1.75 2.38574 3.68737 2.38574 7.27887C2.38574 7.64355 2.53061 7.99328 2.78847 8.25115C3.04633 8.50901 3.39607 8.65387 3.76074 8.65387C4.12541 8.65387 4.47515 8.50901 4.73301 8.25115C4.99088 7.99328 5.13574 7.64355 5.13574 7.27887C5.13574 5.369 6.56162 4.5 7.88574 4.5C8.91287 4.5 10.6357 4.80113 10.6357 6.821C10.6357 7.53738 10.4474 8.37337 9.05587 9.14062C8.10987 9.659 6.51074 11.0051 6.51074 12.75C6.51074 13.1147 6.65561 13.4644 6.91347 13.7223C7.17133 13.9801 7.52107 14.125 7.88574 14.125C8.25041 14.125 8.60015 13.9801 8.85801 13.7223C9.11588 13.4644 9.26074 13.1147 9.26074 12.75C9.26074 12.4943 9.80387 11.8659 10.3814 11.5483Z" fill="#F8992B"/>
</svg>
