<svg width="16" height="9" viewBox="0 0 16 9" fill="none" xmlns="http://www.w3.org/2000/svg">
<path fill-rule="evenodd" clip-rule="evenodd" d="M15.7661 8.70086C16.0781 8.36949 16.0781 7.83358 15.7661 7.50304L9.15476 0.496941C9.00903 0.340113 8.83392 0.215229 8.63952 0.129898C8.44513 0.0445663 8.23544 0.000583747 8.0239 0.000583744C7.81235 0.000583742 7.60306 0.0445662 7.40866 0.129898C7.21427 0.215229 7.03916 0.340113 6.89343 0.496941L0.233272 7.55376C0.08443 7.71392 0.000773532 7.92601 -0.000712321 8.14696C-0.00219818 8.36791 0.0787855 8.58117 0.22546 8.7434C0.297892 8.82377 0.385554 8.88807 0.483272 8.93233C0.58099 8.97659 0.686559 8.99986 0.793428 9.00071C0.900297 9.00155 1.00599 8.97995 1.10437 8.93724C1.20274 8.89453 1.29167 8.83162 1.3653 8.75241L7.45905 2.29368C7.53192 2.2152 7.61963 2.15271 7.71687 2.11001C7.8141 2.0673 7.91847 2.04526 8.02429 2.04526C8.13011 2.04526 8.23486 2.0673 8.3321 2.11001C8.42934 2.15271 8.51704 2.2152 8.58991 2.29368L14.6356 8.70086C14.7084 8.77931 14.7963 8.84178 14.8934 8.88448C14.9906 8.92717 15.0951 8.9492 15.2009 8.9492C15.3066 8.9492 15.4111 8.92717 15.5083 8.88448C15.6054 8.84178 15.6933 8.77931 15.7661 8.70086Z" fill="#6D71F9"/>
</svg>
